<svg viewBox="0 0 460 340" xmlns="http://www.w3.org/2000/svg">
<path d="M10,10 l0,30 l30,0 l0,-30 z" fill="none" stroke="black" stroke-width="2"/>
<path d="M50,10 l0,20 l20,0 l0,-20 z" fill="none" stroke="blue" stroke-width="1"/>
<path d="M80,10 l0,20 l10,0 l0,-20 z" fill="none" stroke="green" stroke-width="1"/>
<path d="M100,10 l0,5 l30,0 l0,-5 z" fill="none" stroke="red" stroke-width="1"/>
<path d="M140,10 l0,5 l30,0 l0,-5 z" fill="none" stroke="yellow" stroke-width="1"/>
<path d="M10,60 l0,30 l30,0 l0,-30 z" fill="none" stroke="black" stroke-width="2"/>
<path d="M10,60 l0,20 l20,0 l0,-20 z" fill="none" stroke="blue" stroke-width="1"/>
<path d="M60,60 l0,30 l30,0 l0,-30 z" fill="none" stroke="black" stroke-width="2"/>
<path d="M60,65 l0,20 l20,0 l0,-20 z" fill="none" stroke="blue" stroke-width="1"/>
<path d="M110,60 l0,30 l30,0 l0,-30 z" fill="none" stroke="black" stroke-width="2"/>
<path d="M110,70 l0,20 l20,0 l0,-20 z" fill="none" stroke="blue" stroke-width="1"/>
<path d="M160,60 l0,30 l30,0 l0,-30 z" fill="none" stroke="black" stroke-width="2"/>
<path d="M170,60 l0,20 l20,0 l0,-20 z" fill="none" stroke="blue" stroke-width="1"/>
<path d="M210,60 l0,30 l30,0 l0,-30 z" fill="none" stroke="black" stroke-width="2"/>
<path d="M220,65 l0,20 l20,0 l0,-20 z" fill="none" stroke="blue" stroke-width="1"/>
<path d="M260,60 l0,30 l30,0 l0,-30 z" fill="none" stroke="black" stroke-width="2"/>
<path d="M270,70 l0,20 l20,0 l0,-20 z" fill="none" stroke="blue" stroke-width="1"/>
<path d="M10,110 l0,30 l30,0 l0,-30 z" fill="none" stroke="black" stroke-width="2"/>
<path d="M10,110 l0,20 l10,0 l0,-20 z" fill="none" stroke="green" stroke-width="1"/>
<path d="M60,110 l0,30 l30,0 l0,-30 z" fill="none" stroke="black" stroke-width="2"/>
<path d="M60,115 l0,20 l10,0 l0,-20 z" fill="none" stroke="green" stroke-width="1"/>
<path d="M110,110 l0,30 l30,0 l0,-30 z" fill="none" stroke="black" stroke-width="2"/>
<path d="M110,120 l0,20 l10,0 l0,-20 z" fill="none" stroke="green" stroke-width="1"/>
<path d="M160,110 l0,30 l30,0 l0,-30 z" fill="none" stroke="black" stroke-width="2"/>
<path d="M170,110 l0,20 l10,0 l0,-20 z" fill="none" stroke="green" stroke-width="1"/>
<path d="M210,110 l0,30 l30,0 l0,-30 z" fill="none" stroke="black" stroke-width="2"/>
<path d="M220,115 l0,20 l10,0 l0,-20 z" fill="none" stroke="green" stroke-width="1"/>
<path d="M260,110 l0,30 l30,0 l0,-30 z" fill="none" stroke="black" stroke-width="2"/>
<path d="M270,120 l0,20 l10,0 l0,-20 z" fill="none" stroke="green" stroke-width="1"/>
<path d="M310,110 l0,30 l30,0 l0,-30 z" fill="none" stroke="black" stroke-width="2"/>
<path d="M330,110 l0,20 l10,0 l0,-20 z" fill="none" stroke="green" stroke-width="1"/>
<path d="M360,110 l0,30 l30,0 l0,-30 z" fill="none" stroke="black" stroke-width="2"/>
<path d="M380,115 l0,20 l10,0 l0,-20 z" fill="none" stroke="green" stroke-width="1"/>
<path d="M410,110 l0,30 l30,0 l0,-30 z" fill="none" stroke="black" stroke-width="2"/>
<path d="M430,120 l0,20 l10,0 l0,-20 z" fill="none" stroke="green" stroke-width="1"/>
<path d="M10,160 l0,30 l30,0 l0,-30 z" fill="none" stroke="black" stroke-width="2"/>
<path d="M10,160 l0,5 l30,0 l0,-5 z" fill="none" stroke="red" stroke-width="1"/>
<path d="M60,160 l0,30 l30,0 l0,-30 z" fill="none" stroke="black" stroke-width="2"/>
<path d="M60,165 l0,5 l30,0 l0,-5 z" fill="none" stroke="red" stroke-width="1"/>
<path d="M110,160 l0,30 l30,0 l0,-30 z" fill="none" stroke="black" stroke-width="2"/>
<path d="M110,170 l0,5 l30,0 l0,-5 z" fill="none" stroke="red" stroke-width="1"/>
<path d="M160,160 l0,30 l30,0 l0,-30 z" fill="none" stroke="black" stroke-width="2"/>
<path d="M160,175 l0,5 l30,0 l0,-5 z" fill="none" stroke="red" stroke-width="1"/>
<path d="M210,160 l0,30 l30,0 l0,-30 z" fill="none" stroke="black" stroke-width="2"/>
<path d="M210,180 l0,5 l30,0 l0,-5 z" fill="none" stroke="red" stroke-width="1"/>
<path d="M260,160 l0,30 l30,0 l0,-30 z" fill="none" stroke="black" stroke-width="2"/>
<path d="M260,185 l0,5 l30,0 l0,-5 z" fill="none" stroke="red" stroke-width="1"/>
<path d="M10,210 l0,30 l30,0 l0,-30 z" fill="none" stroke="black" stroke-width="2"/>
<path d="M10,210 l0,5 l30,0 l0,-5 z" fill="none" stroke="yellow" stroke-width="1"/>
<path d="M60,210 l0,30 l30,0 l0,-30 z" fill="none" stroke="black" stroke-width="2"/>
<path d="M60,215 l0,5 l30,0 l0,-5 z" fill="none" stroke="yellow" stroke-width="1"/>
<path d="M110,210 l0,30 l30,0 l0,-30 z" fill="none" stroke="black" stroke-width="2"/>
<path d="M110,220 l0,5 l30,0 l0,-5 z" fill="none" stroke="yellow" stroke-width="1"/>
<path d="M160,210 l0,30 l30,0 l0,-30 z" fill="none" stroke="black" stroke-width="2"/>
<path d="M160,225 l0,5 l30,0 l0,-5 z" fill="none" stroke="yellow" stroke-width="1"/>
<path d="M210,210 l0,30 l30,0 l0,-30 z" fill="none" stroke="black" stroke-width="2"/>
<path d="M210,230 l0,5 l30,0 l0,-5 z" fill="none" stroke="yellow" stroke-width="1"/>
<path d="M260,210 l0,30 l30,0 l0,-30 z" fill="none" stroke="black" stroke-width="2"/>
<path d="M260,235 l0,5 l30,0 l0,-5 z" fill="none" stroke="yellow" stroke-width="1"/>
<path d="M10,260 l0,30 l30,0 l0,-30 z" fill="none" stroke="black" stroke-width="2"/>
<path d="M10,260 l0,20 l20,0 l0,-20 z" fill="none" stroke="blue" stroke-width="1"/>
<path d="M30,260 l0,20 l10,0 l0,-20 z" fill="none" stroke="green" stroke-width="1"/>
<path d="M10,280 l0,5 l30,0 l0,-5 z" fill="none" stroke="red" stroke-width="1"/>
<path d="M10,285 l0,5 l30,0 l0,-5 z" fill="none" stroke="yellow" stroke-width="1"/>
<path d="M60,260 l0,30 l30,0 l0,-30 z" fill="none" stroke="black" stroke-width="2"/>
<path d="M60,260 l0,20 l20,0 l0,-20 z" fill="none" stroke="blue" stroke-width="1"/>
<path d="M80,260 l0,20 l10,0 l0,-20 z" fill="none" stroke="green" stroke-width="1"/>
<path d="M60,285 l0,5 l30,0 l0,-5 z" fill="none" stroke="red" stroke-width="1"/>
<path d="M60,280 l0,5 l30,0 l0,-5 z" fill="none" stroke="yellow" stroke-width="1"/>
<path d="M110,260 l0,30 l30,0 l0,-30 z" fill="none" stroke="black" stroke-width="2"/>
<path d="M110,265 l0,20 l20,0 l0,-20 z" fill="none" stroke="blue" stroke-width="1"/>
<path d="M130,265 l0,20 l10,0 l0,-20 z" fill="none" stroke="green" stroke-width="1"/>
<path d="M110,260 l0,5 l30,0 l0,-5 z" fill="none" stroke="red" stroke-width="1"/>
<path d="M110,285 l0,5 l30,0 l0,-5 z" fill="none" stroke="yellow" stroke-width="1"/>
<path d="M160,260 l0,30 l30,0 l0,-30 z" fill="none" stroke="black" stroke-width="2"/>
<path d="M160,265 l0,20 l20,0 l0,-20 z" fill="none" stroke="blue" stroke-width="1"/>
<path d="M180,265 l0,20 l10,0 l0,-20 z" fill="none" stroke="green" stroke-width="1"/>
<path d="M160,285 l0,5 l30,0 l0,-5 z" fill="none" stroke="red" stroke-width="1"/>
<path d="M160,260 l0,5 l30,0 l0,-5 z" fill="none" stroke="yellow" stroke-width="1"/>
<path d="M210,260 l0,30 l30,0 l0,-30 z" fill="none" stroke="black" stroke-width="2"/>
<path d="M210,270 l0,20 l20,0 l0,-20 z" fill="none" stroke="blue" stroke-width="1"/>
<path d="M230,270 l0,20 l10,0 l0,-20 z" fill="none" stroke="green" stroke-width="1"/>
<path d="M210,260 l0,5 l30,0 l0,-5 z" fill="none" stroke="red" stroke-width="1"/>
<path d="M210,265 l0,5 l30,0 l0,-5 z" fill="none" stroke="yellow" stroke-width="1"/>
<path d="M260,260 l0,30 l30,0 l0,-30 z" fill="none" stroke="black" stroke-width="2"/>
<path d="M260,270 l0,20 l20,0 l0,-20 z" fill="none" stroke="blue" stroke-width="1"/>
<path d="M280,270 l0,20 l10,0 l0,-20 z" fill="none" stroke="green" stroke-width="1"/>
<path d="M260,265 l0,5 l30,0 l0,-5 z" fill="none" stroke="red" stroke-width="1"/>
<path d="M260,260 l0,5 l30,0 l0,-5 z" fill="none" stroke="yellow" stroke-width="1"/>
<path d="M310,260 l0,30 l30,0 l0,-30 z" fill="none" stroke="black" stroke-width="2"/>
<path d="M320,260 l0,20 l20,0 l0,-20 z" fill="none" stroke="blue" stroke-width="1"/>
<path d="M310,260 l0,20 l10,0 l0,-20 z" fill="none" stroke="green" stroke-width="1"/>
<path d="M310,280 l0,5 l30,0 l0,-5 z" fill="none" stroke="red" stroke-width="1"/>
<path d="M310,285 l0,5 l30,0 l0,-5 z" fill="none" stroke="yellow" stroke-width="1"/>
<path d="M360,260 l0,30 l30,0 l0,-30 z" fill="none" stroke="black" stroke-width="2"/>
<path d="M370,260 l0,20 l20,0 l0,-20 z" fill="none" stroke="blue" stroke-width="1"/>
<path d="M360,260 l0,20 l10,0 l0,-20 z" fill="none" stroke="green" stroke-width="1"/>
<path d="M360,285 l0,5 l30,0 l0,-5 z" fill="none" stroke="red" stroke-width="1"/>
<path d="M360,280 l0,5 l30,0 l0,-5 z" fill="none" stroke="yellow" stroke-width="1"/>
<path d="M410,260 l0,30 l30,0 l0,-30 z" fill="none" stroke="black" stroke-width="2"/>
<path d="M420,265 l0,20 l20,0 l0,-20 z" fill="none" stroke="blue" stroke-width="1"/>
<path d="M410,265 l0,20 l10,0 l0,-20 z" fill="none" stroke="green" stroke-width="1"/>
<path d="M410,260 l0,5 l30,0 l0,-5 z" fill="none" stroke="red" stroke-width="1"/>
<path d="M410,285 l0,5 l30,0 l0,-5 z" fill="none" stroke="yellow" stroke-width="1"/>
<path d="M10,300 l0,30 l30,0 l0,-30 z" fill="none" stroke="black" stroke-width="2"/>
<path d="M20,305 l0,20 l20,0 l0,-20 z" fill="none" stroke="blue" stroke-width="1"/>
<path d="M10,305 l0,20 l10,0 l0,-20 z" fill="none" stroke="green" stroke-width="1"/>
<path d="M10,325 l0,5 l30,0 l0,-5 z" fill="none" stroke="red" stroke-width="1"/>
<path d="M10,300 l0,5 l30,0 l0,-5 z" fill="none" stroke="yellow" stroke-width="1"/>
<path d="M60,300 l0,30 l30,0 l0,-30 z" fill="none" stroke="black" stroke-width="2"/>
<path d="M70,310 l0,20 l20,0 l0,-20 z" fill="none" stroke="blue" stroke-width="1"/>
<path d="M60,310 l0,20 l10,0 l0,-20 z" fill="none" stroke="green" stroke-width="1"/>
<path d="M60,300 l0,5 l30,0 l0,-5 z" fill="none" stroke="red" stroke-width="1"/>
<path d="M60,305 l0,5 l30,0 l0,-5 z" fill="none" stroke="yellow" stroke-width="1"/>
<path d="M110,300 l0,30 l30,0 l0,-30 z" fill="none" stroke="black" stroke-width="2"/>
<path d="M120,310 l0,20 l20,0 l0,-20 z" fill="none" stroke="blue" stroke-width="1"/>
<path d="M110,310 l0,20 l10,0 l0,-20 z" fill="none" stroke="green" stroke-width="1"/>
<path d="M110,305 l0,5 l30,0 l0,-5 z" fill="none" stroke="red" stroke-width="1"/>
<path d="M110,300 l0,5 l30,0 l0,-5 z" fill="none" stroke="yellow" stroke-width="1"/>
</svg>